<svg width="189" height="37" viewBox="0 0 189 37" fill="none" xmlns="http://www.w3.org/2000/svg">
<path d="M0 35.9264V1.01731H15.1364C17.7955 1.01731 20.0284 1.37527 21.8352 2.09118C23.6534 2.80709 25.0227 3.81845 25.9432 5.12527C26.875 6.43208 27.3409 7.97186 27.3409 9.74458C27.3409 11.0287 27.0568 12.1991 26.4886 13.2559C25.9318 14.3128 25.1477 15.1991 24.1364 15.915C23.125 16.6196 21.9432 17.1082 20.5909 17.3809V17.7219C22.0909 17.7787 23.4545 18.1594 24.6818 18.8639C25.9091 19.5571 26.8864 20.5173 27.6136 21.7446C28.3409 22.9605 28.7045 24.3923 28.7045 26.04C28.7045 27.9491 28.2045 29.648 27.2045 31.1366C26.2159 32.6253 24.8068 33.7957 22.9773 34.648C21.1477 35.5003 18.9659 35.9264 16.4318 35.9264H0ZM9.47727 28.3582H13.9091C15.5 28.3582 16.6932 28.0628 17.4886 27.4719C18.2841 26.8696 18.6818 25.9832 18.6818 24.8128C18.6818 23.9946 18.4943 23.3014 18.1193 22.7332C17.7443 22.165 17.2102 21.7332 16.517 21.4378C15.8352 21.1423 15.0114 20.9946 14.0455 20.9946H9.47727V28.3582ZM9.47727 15.1309H13.3636C14.1932 15.1309 14.9261 15.0003 15.5625 14.7389C16.1989 14.4775 16.6932 14.1025 17.0455 13.6139C17.4091 13.1139 17.5909 12.5059 17.5909 11.79C17.5909 10.7105 17.2045 9.88663 16.4318 9.31845C15.6591 8.7389 14.6818 8.44913 13.5 8.44913H9.47727V15.1309Z" fill="#D8D8D8"/>
<path d="M65.8807 18.4719C65.8807 22.3582 65.125 25.6366 63.6136 28.3071C62.1023 30.9662 60.0625 32.9832 57.4943 34.3582C54.9261 35.7219 52.0625 36.4037 48.9034 36.4037C45.7216 36.4037 42.8466 35.7162 40.2784 34.3412C37.7216 32.9548 35.6875 30.9321 34.1761 28.273C32.6761 25.6025 31.9261 22.3355 31.9261 18.4719C31.9261 14.5855 32.6761 11.3128 34.1761 8.65368C35.6875 5.98322 37.7216 3.96618 40.2784 2.60254C42.8466 1.22754 45.7216 0.540039 48.9034 0.540039C52.0625 0.540039 54.9261 1.22754 57.4943 2.60254C60.0625 3.96618 62.1023 5.98322 63.6136 8.65368C65.125 11.3128 65.8807 14.5855 65.8807 18.4719Z" fill="#D8D8D8"/>
<path d="M67.6705 8.65368V1.01731H98.0114V8.65368H87.5114V35.9264H78.1705V8.65368H67.6705Z" fill="#D8D8D8"/>
<path d="M101.578 35.9264V1.01731H111.055V28.29H125.169V35.9264H101.578Z" fill="#D8D8D8"/>
<path d="M129 35.9264V1.01731H154.159V8.65368H138.477V14.6537H152.864V22.29H138.477V28.29H154.091V35.9264H129Z" fill="#D8D8D8"/>
<path d="M158.859 35.9264V1.01731H173.928C176.518 1.01731 178.786 1.4889 180.729 2.43209C182.672 3.37527 184.183 4.73322 185.263 6.50595C186.342 8.27868 186.882 10.4037 186.882 12.8809C186.882 15.3809 186.325 17.4889 185.212 19.2048C184.109 20.9207 182.558 22.2162 180.558 23.0912C178.57 23.9662 176.246 24.4037 173.587 24.4037H164.587V17.04H171.678C172.791 17.04 173.74 16.9037 174.524 16.6309C175.32 16.3469 175.928 15.898 176.348 15.2844C176.78 14.6707 176.996 13.8696 176.996 12.8809C176.996 11.8809 176.78 11.0684 176.348 10.4434C175.928 9.80709 175.32 9.34118 174.524 9.04572C173.74 8.7389 172.791 8.58549 171.678 8.58549H168.337V35.9264H158.859ZM179.314 19.9037L188.041 35.9264H177.746L169.223 19.9037H179.314Z" fill="#D8D8D8"/>
<path d="M49.3167 17.1998C50.6079 18.3143 50.001 20.4299 48.3153 20.6904L39.3558 22.0747C37.9131 22.2977 36.7254 20.9499 37.128 19.5467L39.2246 12.2386C39.6272 10.8354 41.3488 10.3223 42.4538 11.2762L49.3167 17.1998Z" fill="black"/>
<path d="M48.1833 20.6537C46.8921 19.5392 47.499 17.4236 49.1847 17.1631L58.1442 15.7788C59.5869 15.5559 60.7746 16.9036 60.372 18.3069L58.2754 25.6149C57.8728 27.0181 56.1512 27.5312 55.0462 26.5774L48.1833 20.6537Z" fill="black"/>
</svg>
