<svg width="17" height="19" viewBox="0 0 17 19" fill="none" xmlns="http://www.w3.org/2000/svg">
<path d="M1.01779 12.8559L0.0724842 17.4266C0.0398743 17.5937 0.0409921 17.7669 0.0757561 17.9334C0.11052 18.0999 0.178052 18.2557 0.273418 18.3892C0.368785 18.5228 0.489577 18.6308 0.62697 18.7053C0.764363 18.7799 0.914887 18.8191 1.06755 18.8202C1.13868 18.8282 1.21035 18.8282 1.28148 18.8202L5.38611 17.7611L13.267 8.96517L8.86882 4.04883L1.01779 12.8559Z" fill="#CACACA"/>
<path d="M15.7447 4.56161L12.8093 1.2729C12.6163 1.05778 12.3551 0.937012 12.0829 0.937012C11.8107 0.937012 11.5495 1.05778 11.3565 1.2729L9.72461 3.1012L14.1178 8.02312L15.7497 6.19482C15.8452 6.08728 15.9208 5.9597 15.9723 5.81938C16.0237 5.67906 16.05 5.52875 16.0495 5.37706C16.049 5.22536 16.0219 5.07526 15.9696 4.93533C15.9173 4.79541 15.8409 4.66841 15.7447 4.56161Z" fill="#CACACA"/>
</svg>
