<svg width="24" height="27" viewBox="0 0 24 27" fill="none" xmlns="http://www.w3.org/2000/svg">
<path d="M10.2635 22.711C12.5407 22.7105 14.7523 21.8772 16.5461 20.3439L22.1859 26.5084L24 24.5255L18.3602 18.3611C19.7637 16.4002 20.5265 13.9824 20.5271 11.4927C20.5271 5.30722 15.9226 0.274414 10.2635 0.274414C4.60448 0.274414 0 5.30722 0 11.4927C0 17.6782 4.60448 22.711 10.2635 22.711ZM10.2635 3.07899C14.5088 3.07899 17.9612 6.85254 17.9612 11.4927C17.9612 16.1329 14.5088 19.9064 10.2635 19.9064C6.01828 19.9064 2.56588 16.1329 2.56588 11.4927C2.56588 6.85254 6.01828 3.07899 10.2635 3.07899Z" fill="#A7A7A7"/>
</svg>
